name ./resultDataOpenSim/trcMotMarkerGrf/sub10/grf-01-02.mot
datacolumns 19
datarows 20
range 1.36000000 1.43600000
endheader

                time	     ground_force_vx	     ground_force_vy	     ground_force_vz	     ground_force_px	     ground_force_py	     ground_force_pz	   l_ground_force_vx	   l_ground_force_vy	   l_ground_force_vz	   l_ground_force_px	   l_ground_force_py	   l_ground_force_pz	     ground_torque_x	     ground_torque_y	     ground_torque_z	   l_ground_torque_x	   l_ground_torque_y	   l_ground_torque_z	
          1.36000000	        -32.25719903	        381.97358766	        -15.44403458	          0.94008114	          0.00000000	          0.04533169	          0.00000000	          0.00000000	          0.00000000	          0.00000000	          0.00000000	          0.00000000	          0.00000000	          0.02650940	          0.00000000	          0.00000000	          0.00000000	          0.00000000	
          1.36400000	        -30.87462380	        375.78748653	        -16.00169980	          0.94130784	          0.00000000	          0.04538859	          0.00000000	          0.00000000	          0.00000000	          0.00000000	          0.00000000	          0.00000000	          0.00000000	          0.14148798	          0.00000000	          0.00000000	          0.00000000	          0.00000000	
          1.36800000	        -29.62513640	        370.26898096	        -16.10988809	          0.94228729	          0.00000000	          0.04545947	          0.00000000	          0.00000000	          0.00000000	          0.00000000	          0.00000000	          0.00000000	          0.00000000	          0.25520597	          0.00000000	          0.00000000	          0.00000000	          0.00000000	
          1.37200000	        -28.06575594	        365.31176748	        -15.81742847	          0.94296745	          0.00000000	          0.04553856	          0.00000000	          0.00000000	          0.00000000	          0.00000000	          0.00000000	          0.00000000	          0.00000000	          0.36385454	          0.00000000	          0.00000000	          0.00000000	          0.00000000	
          1.37600000	        -25.87498429	        360.87760915	        -15.25778093	          0.94333005	          0.00000000	          0.04562071	          0.00000000	          0.00000000	          0.00000000	          0.00000000	          0.00000000	          0.00000000	          0.00000000	          0.46716161	          0.00000000	          0.00000000	          0.00000000	          0.00000000	
          1.38000000	        -22.92474115	        356.94678705	        -14.62816385	          0.94338933	          0.00000000	          0.04570710	          0.00000000	          0.00000000	          0.00000000	          0.00000000	          0.00000000	          0.00000000	          0.00000000	          0.56706439	          0.00000000	          0.00000000	          0.00000000	          0.00000000	
          1.38400000	        -19.29415453	        353.51020543	        -14.15374006	          0.94318680	          0.00000000	          0.04580421	          0.00000000	          0.00000000	          0.00000000	          0.00000000	          0.00000000	          0.00000000	          0.00000000	          0.66542747	          0.00000000	          0.00000000	          0.00000000	          0.00000000	
          1.38800000	        -15.23582907	        350.60643347	        -14.05050809	          0.94278894	          0.00000000	          0.04591713	          0.00000000	          0.00000000	          0.00000000	          0.00000000	          0.00000000	          0.00000000	          0.00000000	          0.76288599	          0.00000000	          0.00000000	          0.00000000	          0.00000000	
          1.39200000	        -11.10420315	        348.34940106	        -14.47999348	          0.94226656	          0.00000000	          0.04603643	          0.00000000	          0.00000000	          0.00000000	          0.00000000	          0.00000000	          0.00000000	          0.00000000	          0.85967831	          0.00000000	          0.00000000	          0.00000000	          0.00000000	
          1.39600000	         -7.26027432	        346.90040987	        -15.50569868	          0.94173616	          0.00000000	          0.04613966	          0.00000000	          0.00000000	          0.00000000	          0.00000000	          0.00000000	          0.00000000	          0.00000000	          0.95745241	          0.00000000	          0.00000000	          0.00000000	          0.00000000	
          1.40000000	         -3.98023613	        346.40023894	        -17.06958832	          0.94129057	          0.00000000	          0.04621597	          0.00000000	          0.00000000	          0.00000000	          0.00000000	          0.00000000	          0.00000000	          0.00000000	          1.06011856	          0.00000000	          0.00000000	          0.00000000	          0.00000000	
          1.40400000	         -1.39121998	        346.93257486	        -18.99246509	          0.94095728	          0.00000000	          0.04625605	          0.00000000	          0.00000000	          0.00000000	          0.00000000	          0.00000000	          0.00000000	          0.00000000	          1.17266441	          0.00000000	          0.00000000	          0.00000000	          0.00000000	
          1.40800000	          0.54344663	        348.54953117	        -21.01200329	          0.94073389	          0.00000000	          0.04624791	          0.00000000	          0.00000000	          0.00000000	          0.00000000	          0.00000000	          0.00000000	          0.00000000	          1.29868190	          0.00000000	          0.00000000	          0.00000000	          0.00000000	
          1.41200000	          1.99152535	        351.30479675	        -22.84727604	          0.94059176	          0.00000000	          0.04618172	          0.00000000	          0.00000000	          0.00000000	          0.00000000	          0.00000000	          0.00000000	          0.00000000	          1.43851822	          0.00000000	          0.00000000	          0.00000000	          0.00000000	
          1.41600000	          3.20227307	        355.22727477	        -24.25599180	          0.94049811	          0.00000000	          0.04604515	          0.00000000	          0.00000000	          0.00000000	          0.00000000	          0.00000000	          0.00000000	          0.00000000	          1.58948633	          0.00000000	          0.00000000	          0.00000000	          0.00000000	
          1.42000000	          4.44668160	        360.27365982	        -25.07579015	          0.94042734	          0.00000000	          0.04583769	          0.00000000	          0.00000000	          0.00000000	          0.00000000	          0.00000000	          0.00000000	          0.00000000	          1.74795800	          0.00000000	          0.00000000	          0.00000000	          0.00000000	
          1.42400000	          5.94002993	        366.35334681	        -25.25255613	          0.94031862	          0.00000000	          0.04557279	          0.00000000	          0.00000000	          0.00000000	          0.00000000	          0.00000000	          0.00000000	          0.00000000	          1.91177571	          0.00000000	          0.00000000	          0.00000000	          0.00000000	
          1.42800000	          7.77269172	        373.39900280	        -24.85259796	          0.94013837	          0.00000000	          0.04526749	          0.00000000	          0.00000000	          0.00000000	          0.00000000	          0.00000000	          0.00000000	          0.00000000	          2.08131080	          0.00000000	          0.00000000	          0.00000000	          0.00000000	
          1.43200000	          9.89653407	        381.38997948	        -24.05282122	          0.93990519	          0.00000000	          0.04492956	          0.00000000	          0.00000000	          0.00000000	          0.00000000	          0.00000000	          0.00000000	          0.00000000	          2.25863965	          0.00000000	          0.00000000	          0.00000000	          0.00000000	
          1.43600000	         12.17540507	        390.31655832	        -23.11253838	          0.93965526	          0.00000000	          0.04456003	          0.00000000	          0.00000000	          0.00000000	          0.00000000	          0.00000000	          0.00000000	          0.00000000	          2.44573532	          0.00000000	          0.00000000	          0.00000000	          0.00000000	
